<mxfile host="app.diagrams.net" modified="2020-12-29T12:43:22.955Z" agent="5.0 (Windows)" etag="zDBYF-Dl2P6mCGTsOGoB" version="14.1.2" type="github">
  <diagram name="Page-1" id="e7e014a7-5840-1c2e-5031-d8a46d1fe8dd">
    <mxGraphModel dx="1061" dy="669" grid="1" gridSize="10" guides="1" tooltips="1" connect="1" arrows="1" fold="1" page="1" pageScale="1" pageWidth="1169" pageHeight="826" background="#ffffff" math="0" shadow="0">
      <root>
        <mxCell id="0" />
        <mxCell id="1" parent="0" />
        <mxCell id="2" value="Thread 1" style="swimlane;whiteSpace=wrap" parent="1" vertex="1">
          <mxGeometry x="164.5" y="128" width="280" height="570" as="geometry" />
        </mxCell>
        <mxCell id="5" value="" style="ellipse;shape=startState;fillColor=#000000;strokeColor=#ff0000;" parent="2" vertex="1">
          <mxGeometry x="100" y="40" width="30" height="30" as="geometry" />
        </mxCell>
        <mxCell id="6" value="" style="edgeStyle=elbowEdgeStyle;elbow=horizontal;verticalAlign=bottom;endArrow=open;endSize=8;strokeColor=#FF0000;endFill=1;rounded=0" parent="2" source="5" target="7" edge="1">
          <mxGeometry x="100" y="40" as="geometry">
            <mxPoint x="115" y="110" as="targetPoint" />
          </mxGeometry>
        </mxCell>
        <mxCell id="7" value="idle" style="" parent="2" vertex="1">
          <mxGeometry x="60" y="110" width="110" height="50" as="geometry" />
        </mxCell>
        <mxCell id="8" value="user action" style="" parent="2" vertex="1">
          <mxGeometry x="60" y="220" width="110" height="50" as="geometry" />
        </mxCell>
        <mxCell id="9" value="" style="endArrow=open;strokeColor=#FF0000;endFill=1;rounded=0" parent="2" source="7" target="8" edge="1">
          <mxGeometry relative="1" as="geometry" />
        </mxCell>
        <mxCell id="10" value="post command" style="" parent="2" vertex="1">
          <mxGeometry x="60" y="325" width="110" height="50" as="geometry" />
        </mxCell>
        <mxCell id="11" value="" style="endArrow=open;strokeColor=#FF0000;endFill=1;rounded=0" parent="2" source="8" target="10" edge="1">
          <mxGeometry relative="1" as="geometry" />
        </mxCell>
        <mxCell id="12" value="" style="edgeStyle=elbowEdgeStyle;elbow=horizontal;strokeColor=#FF0000;endArrow=open;endFill=1;rounded=0" parent="2" source="10" target="7" edge="1">
          <mxGeometry width="100" height="100" relative="1" as="geometry">
            <mxPoint x="160" y="290" as="sourcePoint" />
            <mxPoint x="260" y="190" as="targetPoint" />
            <Array as="points">
              <mxPoint x="30" y="250" />
            </Array>
          </mxGeometry>
        </mxCell>
        <mxCell id="3" value="Thread 2" style="swimlane;whiteSpace=wrap" parent="1" vertex="1">
          <mxGeometry x="444.5" y="128" width="280" height="570" as="geometry" />
        </mxCell>
        <mxCell id="13" value="" style="ellipse;shape=startState;fillColor=#000000;strokeColor=#ff0000;" parent="3" vertex="1">
          <mxGeometry x="60" y="40" width="30" height="30" as="geometry" />
        </mxCell>
        <mxCell id="14" value="" style="edgeStyle=elbowEdgeStyle;elbow=horizontal;verticalAlign=bottom;endArrow=open;endSize=8;strokeColor=#FF0000;endFill=1;rounded=0" parent="3" source="13" target="15" edge="1">
          <mxGeometry x="40" y="20" as="geometry">
            <mxPoint x="55" y="90" as="targetPoint" />
          </mxGeometry>
        </mxCell>
        <mxCell id="15" value="idle" style="" parent="3" vertex="1">
          <mxGeometry x="20" y="110" width="110" height="50" as="geometry" />
        </mxCell>
        <mxCell id="16" value="check for &#xa;new commands" style="" parent="3" vertex="1">
          <mxGeometry x="20" y="220" width="110" height="50" as="geometry" />
        </mxCell>
        <mxCell id="17" value="" style="endArrow=open;strokeColor=#FF0000;endFill=1;rounded=0" parent="3" source="15" target="16" edge="1">
          <mxGeometry relative="1" as="geometry" />
        </mxCell>
        <mxCell id="18" value="command queue" style="" parent="3" vertex="1">
          <mxGeometry x="20" y="325" width="110" height="50" as="geometry" />
        </mxCell>
        <mxCell id="19" value="" style="endArrow=open;strokeColor=#FF0000;endFill=1;rounded=0" parent="3" source="16" target="18" edge="1">
          <mxGeometry relative="1" as="geometry" />
        </mxCell>
        <mxCell id="21" value="queue empty" style="rhombus;fillColor=#ffffc0;strokeColor=#ff0000;" parent="3" vertex="1">
          <mxGeometry x="150" y="225" width="80" height="40" as="geometry" />
        </mxCell>
        <mxCell id="22" value="yes" style="edgeStyle=elbowEdgeStyle;elbow=horizontal;align=left;verticalAlign=bottom;endArrow=open;endSize=8;strokeColor=#FF0000;exitX=0.5;exitY=0;endFill=1;rounded=0;entryX=0.75;entryY=0.5;entryPerimeter=0" parent="3" source="21" target="25" edge="1">
          <mxGeometry x="-1" relative="1" as="geometry">
            <mxPoint x="160" y="150" as="targetPoint" />
            <Array as="points">
              <mxPoint x="190" y="180" />
            </Array>
          </mxGeometry>
        </mxCell>
        <mxCell id="23" value="no" style="edgeStyle=elbowEdgeStyle;elbow=horizontal;align=left;verticalAlign=top;endArrow=open;endSize=8;strokeColor=#FF0000;endFill=1;rounded=0" parent="3" source="21" target="30" edge="1">
          <mxGeometry x="-1" relative="1" as="geometry">
            <mxPoint x="190" y="305" as="targetPoint" />
          </mxGeometry>
        </mxCell>
        <mxCell id="24" value="" style="endArrow=open;strokeColor=#FF0000;endFill=1;rounded=0" parent="3" source="16" target="21" edge="1">
          <mxGeometry relative="1" as="geometry" />
        </mxCell>
        <mxCell id="25" value="" style="shape=line;strokeWidth=6;strokeColor=#ff0000;rotation=90" parent="3" vertex="1">
          <mxGeometry x="130" y="127.5" width="50" height="15" as="geometry" />
        </mxCell>
        <mxCell id="26" value="" style="edgeStyle=elbowEdgeStyle;elbow=horizontal;verticalAlign=bottom;endArrow=open;endSize=8;strokeColor=#FF0000;endFill=1;rounded=0" parent="3" source="25" target="15" edge="1">
          <mxGeometry x="130" y="90" as="geometry">
            <mxPoint x="230" y="140" as="targetPoint" />
          </mxGeometry>
        </mxCell>
        <mxCell id="30" value="dispatch&#xa;command&#xa;worker thread" style="" parent="3" vertex="1">
          <mxGeometry x="140" y="325" width="110" height="50" as="geometry" />
        </mxCell>
        <mxCell id="31" value="critical&#xa;section" style="shape=note;whiteSpace=wrap;size=17" parent="3" vertex="1">
          <mxGeometry x="105" y="490" width="100" height="50" as="geometry" />
        </mxCell>
        <mxCell id="32" value="" style="endArrow=none;strokeColor=#FF0000;endFill=0;rounded=0;dashed=1" parent="3" source="18" target="31" edge="1">
          <mxGeometry relative="1" as="geometry" />
        </mxCell>
        <mxCell id="34" value="" style="whiteSpace=wrap;strokeColor=#FF0000;fillColor=#FF0000" parent="3" vertex="1">
          <mxGeometry x="245" y="395" width="5" height="45" as="geometry" />
        </mxCell>
        <mxCell id="41" value="" style="edgeStyle=elbowEdgeStyle;elbow=horizontal;entryX=0;entryY=0.5;strokeColor=#FF0000;endArrow=open;endFill=1;rounded=0" parent="3" source="30" target="34" edge="1">
          <mxGeometry width="100" height="100" relative="1" as="geometry">
            <mxPoint x="60" y="480" as="sourcePoint" />
            <mxPoint x="160" y="380" as="targetPoint" />
            <Array as="points">
              <mxPoint x="195" y="400" />
            </Array>
          </mxGeometry>
        </mxCell>
        <mxCell id="4" value="Thread 3" style="swimlane;whiteSpace=wrap" parent="1" vertex="1">
          <mxGeometry x="724.5" y="128" width="280" height="570" as="geometry" />
        </mxCell>
        <mxCell id="33" value="process&#xa;command" style="" parent="4" vertex="1">
          <mxGeometry x="90" y="405" width="110" height="50" as="geometry" />
        </mxCell>
        <mxCell id="35" value="" style="edgeStyle=elbowEdgeStyle;elbow=horizontal;strokeColor=#FF0000;endArrow=open;endFill=1;rounded=0;entryX=0.25;entryY=0.5;entryPerimeter=0" parent="4" target="25" edge="1">
          <mxGeometry width="100" height="100" relative="1" as="geometry">
            <mxPoint x="-30" y="410" as="sourcePoint" />
            <mxPoint x="-120" y="120" as="targetPoint" />
            <Array as="points">
              <mxPoint x="-10" y="135" />
            </Array>
          </mxGeometry>
        </mxCell>
        <mxCell id="37" value="" style="edgeStyle=none;strokeColor=#FF0000;endArrow=open;endFill=1;rounded=0" parent="4" target="33" edge="1">
          <mxGeometry width="100" height="100" relative="1" as="geometry">
            <mxPoint x="-30" y="429.5" as="sourcePoint" />
            <mxPoint x="90" y="429.5" as="targetPoint" />
          </mxGeometry>
        </mxCell>
        <mxCell id="38" value="" style="ellipse;shape=endState;fillColor=#000000;strokeColor=#ff0000" parent="4" vertex="1">
          <mxGeometry x="130" y="500" width="30" height="30" as="geometry" />
        </mxCell>
        <mxCell id="39" value="" style="endArrow=open;strokeColor=#FF0000;endFill=1;rounded=0" parent="4" source="33" target="38" edge="1">
          <mxGeometry relative="1" as="geometry" />
        </mxCell>
        <mxCell id="20" value="" style="endArrow=open;strokeColor=#FF0000;endFill=1;rounded=0" parent="1" source="10" target="18" edge="1">
          <mxGeometry relative="1" as="geometry" />
        </mxCell>
        <mxCell id="C7zNG7mBXdTVihx_3gqO-172" value="limitDDLJobs" style="swimlane;" parent="1" vertex="1">
          <mxGeometry x="355" y="720" width="270" height="520" as="geometry" />
        </mxCell>
        <mxCell id="C7zNG7mBXdTVihx_3gqO-182" value="" style="ellipse;html=1;shape=startState;fillColor=#000000;strokeColor=#ff0000;" parent="C7zNG7mBXdTVihx_3gqO-172" vertex="1">
          <mxGeometry x="118.75" y="150" width="30" height="30" as="geometry" />
        </mxCell>
        <mxCell id="C7zNG7mBXdTVihx_3gqO-184" value="" style="shape=line;html=1;strokeWidth=6;strokeColor=#ff0000;" parent="C7zNG7mBXdTVihx_3gqO-172" vertex="1">
          <mxGeometry x="85" y="204" width="97.5" height="10" as="geometry" />
        </mxCell>
        <mxCell id="C7zNG7mBXdTVihx_3gqO-189" value="&lt;div&gt;accept &lt;br&gt;&lt;/div&gt;&lt;div&gt;ctx.Done()&lt;/div&gt;" style="html=1;shape=mxgraph.infographic.ribbonSimple;notch1=20;notch2=0;align=center;verticalAlign=middle;fontSize=14;fontStyle=0;fillColor=#FFFFFF;flipH=0;spacingRight=0;spacingLeft=14;" parent="C7zNG7mBXdTVihx_3gqO-172" vertex="1">
          <mxGeometry x="137.5" y="274" width="120" height="40" as="geometry" />
        </mxCell>
        <mxCell id="C7zNG7mBXdTVihx_3gqO-191" value="" style="ellipse;html=1;shape=endState;fillColor=#000000;strokeColor=#ff0000;" parent="C7zNG7mBXdTVihx_3gqO-172" vertex="1">
          <mxGeometry x="182.5" y="354" width="30" height="30" as="geometry" />
        </mxCell>
        <mxCell id="C7zNG7mBXdTVihx_3gqO-194" value="" style="edgeStyle=orthogonalEdgeStyle;html=1;verticalAlign=bottom;endArrow=open;endSize=8;strokeColor=#ff0000;entryX=0.5;entryY=0;entryDx=0;entryDy=0;" parent="C7zNG7mBXdTVihx_3gqO-172" target="C7zNG7mBXdTVihx_3gqO-191" edge="1">
          <mxGeometry relative="1" as="geometry">
            <mxPoint x="222.5" y="409" as="targetPoint" />
            <mxPoint x="197.5" y="314" as="sourcePoint" />
            <Array as="points">
              <mxPoint x="197.5" y="324" />
              <mxPoint x="197.5" y="324" />
            </Array>
          </mxGeometry>
        </mxCell>
        <mxCell id="C7zNG7mBXdTVihx_3gqO-195" value="&lt;div&gt;wait task &lt;br&gt;&lt;/div&gt;&lt;div&gt;from limitJobCh&lt;/div&gt;" style="html=1;shape=mxgraph.infographic.ribbonSimple;notch1=20;notch2=0;align=center;verticalAlign=middle;fontSize=14;fontStyle=0;fillColor=#FFFFFF;flipH=0;spacingRight=0;spacingLeft=14;" parent="C7zNG7mBXdTVihx_3gqO-172" vertex="1">
          <mxGeometry x="12.5" y="274" width="120" height="40" as="geometry" />
        </mxCell>
        <mxCell id="C7zNG7mBXdTVihx_3gqO-197" value="addBatchDDLJobs" style="rounded=1;whiteSpace=wrap;html=1;arcSize=40;fontColor=#000000;fillColor=#ffffc0;strokeColor=#ff0000;" parent="C7zNG7mBXdTVihx_3gqO-172" vertex="1">
          <mxGeometry x="17.5" y="374" width="120" height="40" as="geometry" />
        </mxCell>
        <mxCell id="C7zNG7mBXdTVihx_3gqO-204" value="" style="edgeStyle=segmentEdgeStyle;endArrow=classic;html=1;exitX=0;exitY=0;exitDx=60;exitDy=40;exitPerimeter=0;strokeColor=#FF0000;" parent="C7zNG7mBXdTVihx_3gqO-172" source="C7zNG7mBXdTVihx_3gqO-195" target="C7zNG7mBXdTVihx_3gqO-197" edge="1">
          <mxGeometry width="50" height="50" relative="1" as="geometry">
            <mxPoint x="142.5" y="214" as="sourcePoint" />
            <mxPoint x="192.5" y="164" as="targetPoint" />
            <Array as="points">
              <mxPoint x="72.5" y="344" />
              <mxPoint x="72.5" y="344" />
            </Array>
          </mxGeometry>
        </mxCell>
        <mxCell id="C7zNG7mBXdTVihx_3gqO-209" value="" style="endArrow=classic;html=1;strokeColor=#FF0000;exitX=0.492;exitY=0.644;exitDx=0;exitDy=0;exitPerimeter=0;entryX=0;entryY=0;entryDx=60;entryDy=0;entryPerimeter=0;" parent="C7zNG7mBXdTVihx_3gqO-172" source="C7zNG7mBXdTVihx_3gqO-184" target="C7zNG7mBXdTVihx_3gqO-195" edge="1">
          <mxGeometry width="50" height="50" relative="1" as="geometry">
            <mxPoint x="45" y="180" as="sourcePoint" />
            <mxPoint x="95" y="130" as="targetPoint" />
          </mxGeometry>
        </mxCell>
        <mxCell id="C7zNG7mBXdTVihx_3gqO-210" value="" style="endArrow=classic;html=1;strokeColor=#FF0000;exitX=0.5;exitY=1;exitDx=0;exitDy=0;" parent="C7zNG7mBXdTVihx_3gqO-172" source="C7zNG7mBXdTVihx_3gqO-182" target="C7zNG7mBXdTVihx_3gqO-184" edge="1">
          <mxGeometry width="50" height="50" relative="1" as="geometry">
            <mxPoint x="45" y="180" as="sourcePoint" />
            <mxPoint x="95" y="130" as="targetPoint" />
          </mxGeometry>
        </mxCell>
        <mxCell id="C7zNG7mBXdTVihx_3gqO-211" value="" style="endArrow=classic;html=1;strokeColor=#FF0000;entryX=0;entryY=0;entryDx=60;entryDy=0;entryPerimeter=0;exitX=0.503;exitY=0.505;exitDx=0;exitDy=0;exitPerimeter=0;" parent="C7zNG7mBXdTVihx_3gqO-172" source="C7zNG7mBXdTVihx_3gqO-184" target="C7zNG7mBXdTVihx_3gqO-189" edge="1">
          <mxGeometry width="50" height="50" relative="1" as="geometry">
            <mxPoint x="145" y="214" as="sourcePoint" />
            <mxPoint x="95" y="130" as="targetPoint" />
          </mxGeometry>
        </mxCell>
        <mxCell id="C7zNG7mBXdTVihx_3gqO-181" value="DDL" style="swimlane;" parent="1" vertex="1">
          <mxGeometry x="140" y="720" width="215" height="660" as="geometry" />
        </mxCell>
        <mxCell id="C7zNG7mBXdTVihx_3gqO-205" value="" style="ellipse;html=1;shape=startState;fillColor=#000000;strokeColor=#ff0000;" parent="C7zNG7mBXdTVihx_3gqO-181" vertex="1">
          <mxGeometry x="85" y="50" width="30" height="30" as="geometry" />
        </mxCell>
        <mxCell id="C7zNG7mBXdTVihx_3gqO-206" value="" style="shape=line;html=1;strokeWidth=6;strokeColor=#ff0000;" parent="C7zNG7mBXdTVihx_3gqO-181" vertex="1">
          <mxGeometry x="72.5" y="120" width="55" height="10" as="geometry" />
        </mxCell>
        <mxCell id="C7zNG7mBXdTVihx_3gqO-208" value="" style="endArrow=classic;html=1;strokeColor=#FF0000;exitX=0.5;exitY=1;exitDx=0;exitDy=0;" parent="C7zNG7mBXdTVihx_3gqO-181" source="C7zNG7mBXdTVihx_3gqO-205" target="C7zNG7mBXdTVihx_3gqO-206" edge="1">
          <mxGeometry width="50" height="50" relative="1" as="geometry">
            <mxPoint x="260" y="180" as="sourcePoint" />
            <mxPoint x="310" y="130" as="targetPoint" />
          </mxGeometry>
        </mxCell>
        <mxCell id="C7zNG7mBXdTVihx_3gqO-214" value="RunWorker" style="rhombus;" parent="C7zNG7mBXdTVihx_3gqO-181" vertex="1">
          <mxGeometry x="48.75" y="160" width="102.5" height="30" as="geometry" />
        </mxCell>
        <mxCell id="6bnDz3Qxxi9Tlb1j_jJj-42" value="newSessionPool" style="rounded=1;whiteSpace=wrap;html=1;arcSize=40;fontColor=#000000;fillColor=#ffffc0;strokeColor=#ff0000;" vertex="1" parent="C7zNG7mBXdTVihx_3gqO-181">
          <mxGeometry x="40" y="280" width="120" height="40" as="geometry" />
        </mxCell>
        <mxCell id="6bnDz3Qxxi9Tlb1j_jJj-43" value="newDeleteRangeManager" style="whiteSpace=wrap;html=1;rounded=1;strokeColor=#ff0000;fillColor=#ffffc0;arcSize=40;" vertex="1" parent="C7zNG7mBXdTVihx_3gqO-181">
          <mxGeometry x="25" y="340" width="150" height="40" as="geometry" />
        </mxCell>
        <mxCell id="6bnDz3Qxxi9Tlb1j_jJj-44" value="" style="edgeStyle=orthogonalEdgeStyle;rounded=0;orthogonalLoop=1;jettySize=auto;html=1;strokeColor=#FF0000;" edge="1" parent="C7zNG7mBXdTVihx_3gqO-181" source="6bnDz3Qxxi9Tlb1j_jJj-42" target="6bnDz3Qxxi9Tlb1j_jJj-43">
          <mxGeometry relative="1" as="geometry" />
        </mxCell>
        <mxCell id="6bnDz3Qxxi9Tlb1j_jJj-45" value="newWorkers" style="rounded=1;whiteSpace=wrap;html=1;arcSize=40;fontColor=#000000;fillColor=#ffffc0;strokeColor=#ff0000;" vertex="1" parent="C7zNG7mBXdTVihx_3gqO-181">
          <mxGeometry x="40" y="400" width="120" height="40" as="geometry" />
        </mxCell>
        <mxCell id="6bnDz3Qxxi9Tlb1j_jJj-47" value="" style="endArrow=classic;html=1;strokeColor=#FF0000;exitX=0.5;exitY=1;exitDx=0;exitDy=0;entryX=0.5;entryY=0;entryDx=0;entryDy=0;" edge="1" parent="C7zNG7mBXdTVihx_3gqO-181" source="6bnDz3Qxxi9Tlb1j_jJj-43" target="6bnDz3Qxxi9Tlb1j_jJj-45">
          <mxGeometry width="50" height="50" relative="1" as="geometry">
            <mxPoint x="270" y="330" as="sourcePoint" />
            <mxPoint x="320" y="280" as="targetPoint" />
          </mxGeometry>
        </mxCell>
        <mxCell id="6bnDz3Qxxi9Tlb1j_jJj-49" value="" style="shape=line;html=1;strokeWidth=6;strokeColor=#ff0000;" vertex="1" parent="C7zNG7mBXdTVihx_3gqO-181">
          <mxGeometry x="72.5" y="460" width="55" height="10" as="geometry" />
        </mxCell>
        <mxCell id="6bnDz3Qxxi9Tlb1j_jJj-50" value="" style="endArrow=classic;html=1;strokeColor=#FF0000;exitX=0.5;exitY=1;exitDx=0;exitDy=0;entryX=0.498;entryY=0.61;entryDx=0;entryDy=0;entryPerimeter=0;" edge="1" parent="C7zNG7mBXdTVihx_3gqO-181" source="6bnDz3Qxxi9Tlb1j_jJj-45" target="6bnDz3Qxxi9Tlb1j_jJj-49">
          <mxGeometry width="50" height="50" relative="1" as="geometry">
            <mxPoint x="370" y="320" as="sourcePoint" />
            <mxPoint x="100" y="430" as="targetPoint" />
          </mxGeometry>
        </mxCell>
        <mxCell id="6bnDz3Qxxi9Tlb1j_jJj-53" value="CampaignOwner" style="rounded=1;whiteSpace=wrap;html=1;arcSize=40;fontColor=#000000;fillColor=#ffffc0;strokeColor=#ff0000;" vertex="1" parent="C7zNG7mBXdTVihx_3gqO-181">
          <mxGeometry x="40" y="220" width="120" height="40" as="geometry" />
        </mxCell>
        <mxCell id="6bnDz3Qxxi9Tlb1j_jJj-55" value="&lt;div&gt;true&lt;/div&gt;" style="endArrow=classic;html=1;strokeColor=#FF0000;exitX=0.5;exitY=1;exitDx=0;exitDy=0;entryX=0.5;entryY=0;entryDx=0;entryDy=0;" edge="1" parent="C7zNG7mBXdTVihx_3gqO-181" source="C7zNG7mBXdTVihx_3gqO-214" target="6bnDz3Qxxi9Tlb1j_jJj-53">
          <mxGeometry width="50" height="50" relative="1" as="geometry">
            <mxPoint x="170" y="330" as="sourcePoint" />
            <mxPoint x="220" y="280" as="targetPoint" />
          </mxGeometry>
        </mxCell>
        <mxCell id="6bnDz3Qxxi9Tlb1j_jJj-56" value="" style="endArrow=classic;html=1;strokeColor=#FF0000;exitX=0.5;exitY=1;exitDx=0;exitDy=0;" edge="1" parent="C7zNG7mBXdTVihx_3gqO-181" source="6bnDz3Qxxi9Tlb1j_jJj-53" target="6bnDz3Qxxi9Tlb1j_jJj-42">
          <mxGeometry width="50" height="50" relative="1" as="geometry">
            <mxPoint x="170" y="360" as="sourcePoint" />
            <mxPoint x="220" y="310" as="targetPoint" />
          </mxGeometry>
        </mxCell>
        <mxCell id="6bnDz3Qxxi9Tlb1j_jJj-78" value="&lt;div&gt;schemaSyncer&lt;/div&gt;&lt;div&gt;startCleanWork&lt;br&gt;&lt;/div&gt;" style="rounded=1;whiteSpace=wrap;html=1;arcSize=40;fontColor=#000000;fillColor=#ffffc0;strokeColor=#ff0000;" vertex="1" parent="C7zNG7mBXdTVihx_3gqO-181">
          <mxGeometry x="40" y="490" width="120" height="40" as="geometry" />
        </mxCell>
        <mxCell id="6bnDz3Qxxi9Tlb1j_jJj-79" value="&lt;div&gt;start&lt;/div&gt;&lt;div&gt;CleanDeadTableLock()&lt;/div&gt;" style="rounded=1;whiteSpace=wrap;html=1;arcSize=40;fontColor=#000000;fillColor=#ffffc0;strokeColor=#ff0000;" vertex="1" parent="C7zNG7mBXdTVihx_3gqO-181">
          <mxGeometry x="25" y="550" width="150" height="40" as="geometry" />
        </mxCell>
        <mxCell id="6bnDz3Qxxi9Tlb1j_jJj-81" value="" style="endArrow=classic;html=1;strokeColor=#FF0000;exitX=0.497;exitY=0.767;exitDx=0;exitDy=0;exitPerimeter=0;entryX=0.5;entryY=0;entryDx=0;entryDy=0;" edge="1" parent="C7zNG7mBXdTVihx_3gqO-181" source="6bnDz3Qxxi9Tlb1j_jJj-49" target="6bnDz3Qxxi9Tlb1j_jJj-78">
          <mxGeometry width="50" height="50" relative="1" as="geometry">
            <mxPoint x="370" y="420" as="sourcePoint" />
            <mxPoint x="420" y="370" as="targetPoint" />
          </mxGeometry>
        </mxCell>
        <mxCell id="6bnDz3Qxxi9Tlb1j_jJj-82" value="" style="endArrow=classic;html=1;strokeColor=#FF0000;exitX=0.5;exitY=1;exitDx=0;exitDy=0;" edge="1" parent="C7zNG7mBXdTVihx_3gqO-181" source="6bnDz3Qxxi9Tlb1j_jJj-78" target="6bnDz3Qxxi9Tlb1j_jJj-79">
          <mxGeometry width="50" height="50" relative="1" as="geometry">
            <mxPoint x="370" y="420" as="sourcePoint" />
            <mxPoint x="420" y="370" as="targetPoint" />
          </mxGeometry>
        </mxCell>
        <mxCell id="C7zNG7mBXdTVihx_3gqO-212" value="" style="endArrow=classic;html=1;strokeColor=#FF0000;exitX=0.512;exitY=0.738;exitDx=0;exitDy=0;exitPerimeter=0;" parent="1" source="C7zNG7mBXdTVihx_3gqO-206" target="C7zNG7mBXdTVihx_3gqO-182" edge="1">
          <mxGeometry width="50" height="50" relative="1" as="geometry">
            <mxPoint x="300" y="920" as="sourcePoint" />
            <mxPoint x="350" y="870" as="targetPoint" />
          </mxGeometry>
        </mxCell>
        <mxCell id="C7zNG7mBXdTVihx_3gqO-213" value="" style="endArrow=classic;html=1;strokeColor=#FF0000;entryX=0.5;entryY=0;entryDx=0;entryDy=0;" parent="1" target="C7zNG7mBXdTVihx_3gqO-214" edge="1">
          <mxGeometry width="50" height="50" relative="1" as="geometry">
            <mxPoint x="240" y="845" as="sourcePoint" />
            <mxPoint x="240" y="900" as="targetPoint" />
          </mxGeometry>
        </mxCell>
        <mxCell id="6bnDz3Qxxi9Tlb1j_jJj-46" value="Worker" style="swimlane;" vertex="1" parent="1">
          <mxGeometry x="625" y="720" width="375" height="840" as="geometry" />
        </mxCell>
        <mxCell id="6bnDz3Qxxi9Tlb1j_jJj-51" value="" style="ellipse;html=1;shape=startState;fillColor=#000000;strokeColor=#ff0000;" vertex="1" parent="6bnDz3Qxxi9Tlb1j_jJj-46">
          <mxGeometry x="99.5" y="470" width="30" height="30" as="geometry" />
        </mxCell>
        <mxCell id="6bnDz3Qxxi9Tlb1j_jJj-59" value="" style="shape=line;html=1;strokeWidth=6;strokeColor=#ff0000;" vertex="1" parent="6bnDz3Qxxi9Tlb1j_jJj-46">
          <mxGeometry x="65.75" y="630" width="97.5" height="10" as="geometry" />
        </mxCell>
        <mxCell id="6bnDz3Qxxi9Tlb1j_jJj-60" value="" style="endArrow=classic;html=1;strokeColor=#FF0000;exitX=0.5;exitY=1;exitDx=0;exitDy=0;" edge="1" parent="6bnDz3Qxxi9Tlb1j_jJj-46" source="6bnDz3Qxxi9Tlb1j_jJj-76" target="6bnDz3Qxxi9Tlb1j_jJj-59">
          <mxGeometry width="50" height="50" relative="1" as="geometry">
            <mxPoint x="-85" y="520" as="sourcePoint" />
            <mxPoint x="-35" y="470" as="targetPoint" />
          </mxGeometry>
        </mxCell>
        <mxCell id="6bnDz3Qxxi9Tlb1j_jJj-61" value="&lt;div&gt;wait &lt;br&gt;&lt;/div&gt;&lt;div&gt;timeTicker&lt;/div&gt;" style="html=1;shape=mxgraph.infographic.ribbonSimple;notch1=20;notch2=0;align=center;verticalAlign=middle;fontSize=14;fontStyle=0;fillColor=#FFFFFF;flipH=0;spacingRight=0;spacingLeft=14;" vertex="1" parent="6bnDz3Qxxi9Tlb1j_jJj-46">
          <mxGeometry y="680" width="90" height="40" as="geometry" />
        </mxCell>
        <mxCell id="6bnDz3Qxxi9Tlb1j_jJj-62" value="chooseLeaseTime" style="rounded=1;whiteSpace=wrap;html=1;arcSize=40;fontColor=#000000;fillColor=#ffffc0;strokeColor=#ff0000;" vertex="1" parent="6bnDz3Qxxi9Tlb1j_jJj-46">
          <mxGeometry x="54.5" y="520" width="120" height="40" as="geometry" />
        </mxCell>
        <mxCell id="6bnDz3Qxxi9Tlb1j_jJj-63" value="" style="endArrow=classic;html=1;strokeColor=#FF0000;exitX=0.479;exitY=0.643;exitDx=0;exitDy=0;exitPerimeter=0;entryX=0;entryY=0;entryDx=60;entryDy=0;entryPerimeter=0;" edge="1" parent="6bnDz3Qxxi9Tlb1j_jJj-46" source="6bnDz3Qxxi9Tlb1j_jJj-59" target="6bnDz3Qxxi9Tlb1j_jJj-61">
          <mxGeometry width="50" height="50" relative="1" as="geometry">
            <mxPoint x="-85" y="590" as="sourcePoint" />
            <mxPoint x="-35" y="540" as="targetPoint" />
          </mxGeometry>
        </mxCell>
        <mxCell id="6bnDz3Qxxi9Tlb1j_jJj-64" value="asyncSignal" style="html=1;shape=mxgraph.infographic.ribbonSimple;notch1=20;notch2=0;align=center;verticalAlign=middle;fontSize=14;fontStyle=0;fillColor=#FFFFFF;flipH=0;spacingRight=0;spacingLeft=14;" vertex="1" parent="6bnDz3Qxxi9Tlb1j_jJj-46">
          <mxGeometry x="115" y="680" width="105" height="40" as="geometry" />
        </mxCell>
        <mxCell id="6bnDz3Qxxi9Tlb1j_jJj-65" value="" style="endArrow=classic;html=1;strokeColor=#FF0000;entryX=0;entryY=0;entryDx=60;entryDy=0;entryPerimeter=0;" edge="1" parent="6bnDz3Qxxi9Tlb1j_jJj-46" target="6bnDz3Qxxi9Tlb1j_jJj-64">
          <mxGeometry width="50" height="50" relative="1" as="geometry">
            <mxPoint x="115" y="635" as="sourcePoint" />
            <mxPoint x="-35" y="490" as="targetPoint" />
          </mxGeometry>
        </mxCell>
        <mxCell id="6bnDz3Qxxi9Tlb1j_jJj-66" value="&lt;div&gt;accept &lt;br&gt;&lt;/div&gt;&lt;div&gt;worker.ctx.Done()&lt;/div&gt;" style="html=1;shape=mxgraph.infographic.ribbonSimple;notch1=20;notch2=0;align=center;verticalAlign=middle;fontSize=14;fontStyle=0;fillColor=#FFFFFF;flipH=0;spacingRight=0;spacingLeft=14;" vertex="1" parent="6bnDz3Qxxi9Tlb1j_jJj-46">
          <mxGeometry x="235" y="680" width="120" height="40" as="geometry" />
        </mxCell>
        <mxCell id="6bnDz3Qxxi9Tlb1j_jJj-67" value="" style="endArrow=classic;html=1;strokeColor=#FF0000;exitX=0.467;exitY=0.618;exitDx=0;exitDy=0;exitPerimeter=0;entryX=0;entryY=0;entryDx=60;entryDy=0;entryPerimeter=0;" edge="1" parent="6bnDz3Qxxi9Tlb1j_jJj-46" source="6bnDz3Qxxi9Tlb1j_jJj-59" target="6bnDz3Qxxi9Tlb1j_jJj-66">
          <mxGeometry width="50" height="50" relative="1" as="geometry">
            <mxPoint x="-265" y="540" as="sourcePoint" />
            <mxPoint x="-215" y="490" as="targetPoint" />
          </mxGeometry>
        </mxCell>
        <mxCell id="6bnDz3Qxxi9Tlb1j_jJj-68" value="handleDDLJobQueue" style="rounded=1;whiteSpace=wrap;html=1;arcSize=40;fontColor=#000000;fillColor=#ffffc0;strokeColor=#ff0000;" vertex="1" parent="6bnDz3Qxxi9Tlb1j_jJj-46">
          <mxGeometry x="54.5" y="790" width="120" height="40" as="geometry" />
        </mxCell>
        <mxCell id="6bnDz3Qxxi9Tlb1j_jJj-69" value="" style="shape=line;html=1;strokeWidth=6;strokeColor=#ff0000;" vertex="1" parent="6bnDz3Qxxi9Tlb1j_jJj-46">
          <mxGeometry x="63.75" y="750" width="97.5" height="10" as="geometry" />
        </mxCell>
        <mxCell id="6bnDz3Qxxi9Tlb1j_jJj-70" value="" style="endArrow=classic;html=1;strokeColor=#FF0000;exitX=0;exitY=0;exitDx=45;exitDy=40;exitPerimeter=0;" edge="1" parent="6bnDz3Qxxi9Tlb1j_jJj-46" source="6bnDz3Qxxi9Tlb1j_jJj-61">
          <mxGeometry width="50" height="50" relative="1" as="geometry">
            <mxPoint x="-125" y="620" as="sourcePoint" />
            <mxPoint x="115" y="756" as="targetPoint" />
          </mxGeometry>
        </mxCell>
        <mxCell id="6bnDz3Qxxi9Tlb1j_jJj-71" value="" style="endArrow=classic;html=1;strokeColor=#FF0000;exitX=0;exitY=0;exitDx=52.5;exitDy=40;exitPerimeter=0;entryX=0.503;entryY=0.517;entryDx=0;entryDy=0;entryPerimeter=0;" edge="1" parent="6bnDz3Qxxi9Tlb1j_jJj-46" source="6bnDz3Qxxi9Tlb1j_jJj-64" target="6bnDz3Qxxi9Tlb1j_jJj-69">
          <mxGeometry width="50" height="50" relative="1" as="geometry">
            <mxPoint x="-125" y="620" as="sourcePoint" />
            <mxPoint x="-75" y="570" as="targetPoint" />
          </mxGeometry>
        </mxCell>
        <mxCell id="6bnDz3Qxxi9Tlb1j_jJj-72" value="" style="endArrow=classic;html=1;strokeColor=#FF0000;entryX=0.5;entryY=0;entryDx=0;entryDy=0;" edge="1" parent="6bnDz3Qxxi9Tlb1j_jJj-46" source="6bnDz3Qxxi9Tlb1j_jJj-69" target="6bnDz3Qxxi9Tlb1j_jJj-68">
          <mxGeometry width="50" height="50" relative="1" as="geometry">
            <mxPoint x="-125" y="620" as="sourcePoint" />
            <mxPoint x="113" y="780" as="targetPoint" />
          </mxGeometry>
        </mxCell>
        <mxCell id="6bnDz3Qxxi9Tlb1j_jJj-73" value="" style="ellipse;html=1;shape=endState;fillColor=#000000;strokeColor=#000000;" vertex="1" parent="6bnDz3Qxxi9Tlb1j_jJj-46">
          <mxGeometry x="280" y="760" width="30" height="30" as="geometry" />
        </mxCell>
        <mxCell id="6bnDz3Qxxi9Tlb1j_jJj-74" value="" style="endArrow=classic;html=1;strokeColor=#FF0000;exitX=0;exitY=0;exitDx=60;exitDy=40;exitPerimeter=0;entryX=0.5;entryY=0;entryDx=0;entryDy=0;" edge="1" parent="6bnDz3Qxxi9Tlb1j_jJj-46" source="6bnDz3Qxxi9Tlb1j_jJj-66" target="6bnDz3Qxxi9Tlb1j_jJj-73">
          <mxGeometry width="50" height="50" relative="1" as="geometry">
            <mxPoint x="-125" y="620" as="sourcePoint" />
            <mxPoint x="-75" y="570" as="targetPoint" />
          </mxGeometry>
        </mxCell>
        <mxCell id="6bnDz3Qxxi9Tlb1j_jJj-76" value="createTimeTicker" style="rounded=1;whiteSpace=wrap;html=1;arcSize=40;fontColor=#000000;fillColor=#ffffc0;strokeColor=#ff0000;" vertex="1" parent="6bnDz3Qxxi9Tlb1j_jJj-46">
          <mxGeometry x="54.5" y="570" width="120" height="40" as="geometry" />
        </mxCell>
        <mxCell id="6bnDz3Qxxi9Tlb1j_jJj-77" value="" style="endArrow=classic;html=1;strokeColor=#FF0000;exitX=0.5;exitY=1;exitDx=0;exitDy=0;" edge="1" parent="6bnDz3Qxxi9Tlb1j_jJj-46" source="6bnDz3Qxxi9Tlb1j_jJj-51" target="6bnDz3Qxxi9Tlb1j_jJj-76">
          <mxGeometry width="50" height="50" relative="1" as="geometry">
            <mxPoint x="739.5" y="1220" as="sourcePoint" />
            <mxPoint x="739.5" y="1350" as="targetPoint" />
          </mxGeometry>
        </mxCell>
        <mxCell id="6bnDz3Qxxi9Tlb1j_jJj-52" value="" style="endArrow=classic;html=1;strokeColor=#FF0000;exitX=0.75;exitY=0.5;exitDx=0;exitDy=0;exitPerimeter=0;" edge="1" parent="1" source="6bnDz3Qxxi9Tlb1j_jJj-49" target="6bnDz3Qxxi9Tlb1j_jJj-51">
          <mxGeometry width="50" height="50" relative="1" as="geometry">
            <mxPoint x="460" y="1110" as="sourcePoint" />
            <mxPoint x="510" y="1060" as="targetPoint" />
          </mxGeometry>
        </mxCell>
      </root>
    </mxGraphModel>
  </diagram>
</mxfile>
